<?xml version="1.0" encoding="UTF-8" standalone="no"?>
<svg
   id="svg1829"
   width="128"
   height="128"
   version="1.1"
   viewBox="0 0 33.867 33.867"
   sodipodi:docname="frogatto.svg"
   xml:space="preserve"
   inkscape:version="1.4.2 (ebf0e940d0, 2025-05-08)"
   xmlns:inkscape="http://www.inkscape.org/namespaces/inkscape"
   xmlns:sodipodi="http://sodipodi.sourceforge.net/DTD/sodipodi-0.dtd"
   xmlns="http://www.w3.org/2000/svg"
   xmlns:svg="http://www.w3.org/2000/svg"
   xmlns:rdf="http://www.w3.org/1999/02/22-rdf-syntax-ns#"
   xmlns:cc="http://creativecommons.org/ns#"
   xmlns:dc="http://purl.org/dc/elements/1.1/"><sodipodi:namedview
     id="namedview1"
     pagecolor="#505050"
     bordercolor="#eeeeee"
     borderopacity="1"
     inkscape:showpageshadow="0"
     inkscape:pageopacity="0"
     inkscape:pagecheckerboard="0"
     inkscape:deskcolor="#505050"
     inkscape:zoom="6.296875"
     inkscape:cx="64"
     inkscape:cy="64"
     inkscape:window-width="1920"
     inkscape:window-height="1011"
     inkscape:window-x="0"
     inkscape:window-y="0"
     inkscape:window-maximized="1"
     inkscape:current-layer="layer1" /><defs
     id="defs1823"><radialGradient
       id="radialGradient886"
       cx="17.31"
       cy="2.5296"
       r="14.544"
       gradientTransform="matrix(7.1618 0 0 1.7511 -106.66 -1.9)"
       gradientUnits="userSpaceOnUse"><stop
         id="stop880"
         stop-color="#6ee1d6"
         offset="0" /><stop
         id="stop882"
         stop-color="#4c9ae7"
         offset="1" /></radialGradient><linearGradient
       id="linearGradient880"
       x1="21.108"
       x2="21.108"
       y1="14.679"
       y2="26.259"
       gradientUnits="userSpaceOnUse"><stop
         id="stop874"
         stop-color="#fff"
         offset="0" /><stop
         id="stop876"
         stop-color="#c2dcf7"
         offset="1" /></linearGradient></defs><metadata
     id="metadata1826"><rdf:RDF><cc:Work
         rdf:about=""><dc:format>image/svg+xml</dc:format><dc:type
           rdf:resource="http://purl.org/dc/dcmitype/StillImage" /></cc:Work></rdf:RDF></metadata><g
     id="layer1"><g
       id="g1702"
       transform="matrix(.97573 0 0 .97573 -65.587 -37.192)"
       fill="none"
       opacity=".29676"
       stroke="#000"
       stroke-linecap="round"
       stroke-linejoin="round"
       stroke-opacity=".02"><rect
         id="rect1634"
         x="69.84"
         y="40.71"
         width="29.811"
         height="29.811"
         rx="6.6099"
         ry="6.6099"
         stroke-width=".1" /><rect
         id="rect1638"
         x="69.84"
         y="40.71"
         width="29.811"
         height="29.811"
         rx="6.6099"
         ry="6.6099"
         stroke-width=".2" /><rect
         id="rect1640"
         x="69.84"
         y="40.71"
         width="29.811"
         height="29.811"
         rx="6.6099"
         ry="6.6099"
         stroke-width=".3" /><rect
         id="rect1642"
         x="69.84"
         y="40.71"
         width="29.811"
         height="29.811"
         rx="6.6099"
         ry="6.6099"
         stroke-width=".4" /><rect
         id="rect1644"
         x="69.84"
         y="40.71"
         width="29.811"
         height="29.811"
         rx="6.6099"
         ry="6.6099"
         stroke-width=".5" /><rect
         id="rect1646"
         x="69.84"
         y="40.71"
         width="29.811"
         height="29.811"
         rx="6.6099"
         ry="6.6099"
         stroke-width=".6" /><rect
         id="rect1648"
         x="69.84"
         y="40.71"
         width="29.811"
         height="29.811"
         rx="6.6099"
         ry="6.6099"
         stroke-width=".7" /><rect
         id="rect1650"
         x="69.84"
         y="40.71"
         width="29.811"
         height="29.811"
         rx="6.6099"
         ry="6.6099"
         stroke-width=".8" /><rect
         id="rect1652"
         x="69.84"
         y="40.71"
         width="29.811"
         height="29.811"
         rx="6.6099"
         ry="6.6099" /><rect
         id="rect1654"
         x="69.84"
         y="40.71"
         width="29.811"
         height="29.811"
         rx="6.6099"
         ry="6.6099"
         stroke-width="1.2" /><rect
         id="rect1656"
         x="69.84"
         y="40.71"
         width="29.811"
         height="29.811"
         rx="6.6099"
         ry="6.6099"
         stroke-width="1.4" /><rect
         id="rect1658"
         x="69.84"
         y="40.71"
         width="29.811"
         height="29.811"
         rx="6.6099"
         ry="6.6099"
         stroke-width="1.6" /><rect
         id="rect1660"
         x="69.84"
         y="40.71"
         width="29.811"
         height="29.811"
         rx="6.6099"
         ry="6.6099"
         stroke-width="1.8" /><rect
         id="rect1662"
         x="69.84"
         y="40.71"
         width="29.811"
         height="29.811"
         rx="6.6099"
         ry="6.6099"
         stroke-width="2" /><rect
         id="rect1664"
         x="69.84"
         y="40.71"
         width="29.811"
         height="29.811"
         rx="6.6099"
         ry="6.6099"
         stroke-width="2.2" /><rect
         id="rect1666"
         x="69.84"
         y="40.71"
         width="29.811"
         height="29.811"
         rx="6.6099"
         ry="6.6099"
         stroke-width="2.6" /><rect
         id="rect1668"
         x="69.84"
         y="40.71"
         width="29.811"
         height="29.811"
         rx="6.6099"
         ry="6.6099"
         stroke-width="3" /><rect
         id="rect1670"
         x="69.84"
         y="40.71"
         width="29.811"
         height="29.811"
         rx="6.6099"
         ry="6.6099"
         stroke-width="3.4" /><rect
         id="rect1672"
         x="69.84"
         y="40.71"
         width="29.811"
         height="29.811"
         rx="6.6099"
         ry="6.6099"
         stroke-width="3.8" /><rect
         id="rect1674"
         x="69.84"
         y="40.71"
         width="29.811"
         height="29.811"
         rx="6.6099"
         ry="6.6099"
         stroke-width="4.2" /><rect
         id="rect1676"
         x="69.84"
         y="40.71"
         width="29.811"
         height="29.811"
         rx="6.6099"
         ry="6.6099"
         stroke-width="4.6" /><rect
         id="rect1678"
         x="69.84"
         y="40.71"
         width="29.811"
         height="29.811"
         rx="6.6099"
         ry="6.6099"
         stroke-width="5" /></g><rect
       id="rect849-5"
       x="2.5579"
       y="2.5293"
       width="29.087"
       height="29.087"
       rx="6.4495"
       ry="6.4495"
       fill="url(#radialGradient886)"
       stroke-linecap="round"
       stroke-linejoin="round"
       stroke-width="2.6877" /><g
       id="g1"
       transform="matrix(0.48106534,0,0,0.48106534,1.7799418,1.779581)"><ellipse
         style="opacity:0.2"
         rx="27.5"
         ry="18"
         cy="39"
         cx="31.5"
         id="ellipse1" /><ellipse
         style="fill:#19e91f"
         rx="27.5"
         ry="18"
         cy="38"
         cx="31.5"
         id="ellipse2" /><path
         style="opacity:0.2;fill:#ffffff"
         d="M 31.5,20 A 27.5,18 0 0 0 4,38 27.5,18 0 0 0 4.03125,38.585938 27.5,18 0 0 1 31.5,21 27.5,18 0 0 1 58.96875,38.414062 27.5,18 0 0 0 59,38 27.5,18 0 0 0 31.5,20 Z"
         id="path2" /><path
         style="opacity:0.2"
         d="M 17.5,7 A 10.5,15 0 0 0 7,22 10.5,15 0 0 0 17.5,37 10.5,15 0 0 0 28,22 10.5,15 0 0 0 17.5,7 Z m 24,0 A 9.5,13.5 0 0 0 32,20.5 9.5,13.5 0 0 0 41.5,34 9.5,13.5 0 0 0 51,20.5 9.5,13.5 0 0 0 41.5,7 Z"
         id="path3" /><ellipse
         style="fill:#eceeeb"
         rx="9.5"
         ry="13.5"
         cy="19.5"
         cx="41.5"
         id="ellipse3" /><path
         d="m 12,46 v -3 l 6,-2.777778 5,3.000001 L 32,40 l 8,3 6,-3 5,3 v 3 l -5,-3 -6,3 -8,-3 -9,3 -5,-3 z"
         style="opacity:0.1"
         id="path4" /><path
         d="m 12,45 v -3 l 6,-2.777778 5,3.000001 L 32,39 l 8,3 6,-3 5,3 v 3 l -5,-3 -6,3 -8,-3 -9,3 -5,-3 z"
         style="fill:#115b39"
         id="path5" /><ellipse
         style="fill:#eceeeb"
         rx="10.5"
         ry="15"
         cy="21"
         cx="17.5"
         id="ellipse5" /><circle
         r="2.5"
         style="fill:#4f4f4f"
         cx="20.5"
         cy="22.5"
         id="circle5" /><circle
         r="2.5"
         style="fill:#4f4f4f"
         cx="39.5"
         cy="22.5"
         id="circle6" /><path
         style="opacity:0.2;fill:#ffffff"
         d="M 17.5,6 A 10.5,15 0 0 0 7,21 10.5,15 0 0 0 7.0136719,21.404297 10.5,15 0 0 1 17.5,7 10.5,15 0 0 1 27.986328,21.595703 10.5,15 0 0 0 28,21 10.5,15 0 0 0 17.5,6 Z m 24,0 A 9.5,13.5 0 0 0 32,19.5 9.5,13.5 0 0 0 32.013672,19.914062 9.5,13.5 0 0 1 41.5,7 9.5,13.5 0 0 1 50.986328,20.085938 9.5,13.5 0 0 0 51,19.5 9.5,13.5 0 0 0 41.5,6 Z"
         id="path6" /></g></g></svg>
