<?xml version="1.0" encoding="UTF-8" standalone="no"?>
<svg
   id="svg2117"
   width="128"
   height="128"
   version="1.1"
   viewBox="0 0 33.867 33.867"
   sodipodi:docname="f3d.svg"
   xml:space="preserve"
   inkscape:version="1.4.2 (ebf0e940d0, 2025-05-08)"
   xmlns:inkscape="http://www.inkscape.org/namespaces/inkscape"
   xmlns:sodipodi="http://sodipodi.sourceforge.net/DTD/sodipodi-0.dtd"
   xmlns="http://www.w3.org/2000/svg"
   xmlns:svg="http://www.w3.org/2000/svg"
   xmlns:rdf="http://www.w3.org/1999/02/22-rdf-syntax-ns#"
   xmlns:cc="http://creativecommons.org/ns#"
   xmlns:dc="http://purl.org/dc/elements/1.1/"><sodipodi:namedview
     id="namedview1"
     pagecolor="#777777"
     bordercolor="#000000"
     borderopacity="0.25"
     inkscape:showpageshadow="2"
     inkscape:pageopacity="0.0"
     inkscape:pagecheckerboard="true"
     inkscape:deskcolor="#d1d1d1"
     showguides="false"
     inkscape:zoom="6.265625"
     inkscape:cx="64"
     inkscape:cy="64"
     inkscape:window-width="1920"
     inkscape:window-height="1011"
     inkscape:window-x="0"
     inkscape:window-y="0"
     inkscape:window-maximized="1"
     inkscape:current-layer="layer1" /><defs
     id="defs2111"><linearGradient
       id="linearGradient912"
       x1="132.21"
       x2="132.21"
       y1="42.152"
       y2="70.68"
       gradientTransform="matrix(.97573 0 0 .97573 -111.89 -37.234)"
       gradientUnits="userSpaceOnUse"><stop
         id="stop1626"
         stop-color="#f8fcfc"
         offset="0"
         style="stop-color:#525252;stop-opacity:1;" /><stop
         id="stop1628"
         stop-color="#e3e5e8"
         offset="1"
         style="stop-color:#3f3f3f;stop-opacity:1;" /></linearGradient><linearGradient
       id="linearGradient910"
       x1="17.066"
       x2="22.576"
       y1="19.986"
       y2="9.3423"
       gradientUnits="userSpaceOnUse"><stop
         id="stop904"
         stop-color="#0d65d7"
         offset="0" /><stop
         id="stop906"
         stop-color="#0d97ff"
         stop-opacity=".96471"
         offset="1" /></linearGradient><linearGradient
       id="linearGradient920"
       x1="11.493"
       x2="19.061"
       y1="27.026"
       y2="15.494"
       gradientUnits="userSpaceOnUse"><stop
         id="stop912"
         stop-color="#7f80a1"
         offset="0" /><stop
         id="stop922"
         stop-color="#3a4a88"
         offset=".64635" /><stop
         id="stop914"
         stop-color="#5470cc"
         offset="1" /></linearGradient></defs><metadata
     id="metadata2114"><rdf:RDF><cc:Work
         rdf:about=""><dc:format>image/svg+xml</dc:format><dc:type
           rdf:resource="http://purl.org/dc/dcmitype/StillImage" /></cc:Work></rdf:RDF></metadata><g
     id="layer1"><g
       id="g1702"
       transform="matrix(.97573 0 0 .97573 -65.83 -36.915)"
       fill="none"
       opacity=".13962"
       stroke="#000"
       stroke-linecap="round"
       stroke-linejoin="round"
       stroke-opacity=".02"><rect
         id="rect1634"
         x="69.84"
         y="40.71"
         width="29.811"
         height="29.811"
         rx="6.6099"
         ry="6.6099"
         stroke-width=".1" /><rect
         id="rect1638"
         x="69.84"
         y="40.71"
         width="29.811"
         height="29.811"
         rx="6.6099"
         ry="6.6099"
         stroke-width=".2" /><rect
         id="rect1640"
         x="69.84"
         y="40.71"
         width="29.811"
         height="29.811"
         rx="6.6099"
         ry="6.6099"
         stroke-width=".3" /><rect
         id="rect1642"
         x="69.84"
         y="40.71"
         width="29.811"
         height="29.811"
         rx="6.6099"
         ry="6.6099"
         stroke-width=".4" /><rect
         id="rect1644"
         x="69.84"
         y="40.71"
         width="29.811"
         height="29.811"
         rx="6.6099"
         ry="6.6099"
         stroke-width=".5" /><rect
         id="rect1646"
         x="69.84"
         y="40.71"
         width="29.811"
         height="29.811"
         rx="6.6099"
         ry="6.6099"
         stroke-width=".6" /><rect
         id="rect1648"
         x="69.84"
         y="40.71"
         width="29.811"
         height="29.811"
         rx="6.6099"
         ry="6.6099"
         stroke-width=".7" /><rect
         id="rect1650"
         x="69.84"
         y="40.71"
         width="29.811"
         height="29.811"
         rx="6.6099"
         ry="6.6099"
         stroke-width=".8" /><rect
         id="rect1652"
         x="69.84"
         y="40.71"
         width="29.811"
         height="29.811"
         rx="6.6099"
         ry="6.6099" /><rect
         id="rect1654"
         x="69.84"
         y="40.71"
         width="29.811"
         height="29.811"
         rx="6.6099"
         ry="6.6099"
         stroke-width="1.2" /><rect
         id="rect1656"
         x="69.84"
         y="40.71"
         width="29.811"
         height="29.811"
         rx="6.6099"
         ry="6.6099"
         stroke-width="1.4" /><rect
         id="rect1658"
         x="69.84"
         y="40.71"
         width="29.811"
         height="29.811"
         rx="6.6099"
         ry="6.6099"
         stroke-width="1.6" /><rect
         id="rect1660"
         x="69.84"
         y="40.71"
         width="29.811"
         height="29.811"
         rx="6.6099"
         ry="6.6099"
         stroke-width="1.8" /><rect
         id="rect1662"
         x="69.84"
         y="40.71"
         width="29.811"
         height="29.811"
         rx="6.6099"
         ry="6.6099"
         stroke-width="2" /><rect
         id="rect1664"
         x="69.84"
         y="40.71"
         width="29.811"
         height="29.811"
         rx="6.6099"
         ry="6.6099"
         stroke-width="2.2" /><rect
         id="rect1666"
         x="69.84"
         y="40.71"
         width="29.811"
         height="29.811"
         rx="6.6099"
         ry="6.6099"
         stroke-width="2.6" /><rect
         id="rect1668"
         x="69.84"
         y="40.71"
         width="29.811"
         height="29.811"
         rx="6.6099"
         ry="6.6099"
         stroke-width="3" /><rect
         id="rect1670"
         x="69.84"
         y="40.71"
         width="29.811"
         height="29.811"
         rx="6.6099"
         ry="6.6099"
         stroke-width="3.4" /><rect
         id="rect1672"
         x="69.84"
         y="40.71"
         width="29.811"
         height="29.811"
         rx="6.6099"
         ry="6.6099"
         stroke-width="3.8" /><rect
         id="rect1674"
         x="69.84"
         y="40.71"
         width="29.811"
         height="29.811"
         rx="6.6099"
         ry="6.6099"
         stroke-width="4.2" /><rect
         id="rect1676"
         x="69.84"
         y="40.71"
         width="29.811"
         height="29.811"
         rx="6.6099"
         ry="6.6099"
         stroke-width="4.6" /><rect
         id="rect1678"
         x="69.84"
         y="40.71"
         width="29.811"
         height="29.811"
         rx="6.6099"
         ry="6.6099"
         stroke-width="5" /></g><rect
       id="rect910"
       x="2.2835"
       y="2.4875"
       width="29.087"
       height="29.087"
       rx="6.4495"
       ry="6.4495"
       fill="url(#linearGradient912)"
       stroke-linecap="round"
       stroke-linejoin="round"
       stroke-width="2.6877" /><g
       id="g12"
       transform="matrix(0.58796538,0,0,0.58796301,-2.1755867,-2.1751685)"><path
         d="m 42.530282,11.000134 c -0.101875,-0.0025 -0.20952,0.03032 -0.306006,0.107549 L 23.185947,25.524892 c -0.118276,0.09178 -0.1871,0.23461 -0.185932,0.385214 v 9.610819 c 9.93e-4,0.263931 0.213094,0.478019 0.474506,0.479075 h 6.064225 c 0.261429,-10e-4 0.473486,-0.215133 0.474508,-0.479075 -9.93e-4,-0.263943 -0.213083,-0.478045 -0.474508,-0.479074 h -5.074542 l 16.40434,-20.703838 -6.414542,16.198583 c -0.09994,0.248851 0.02111,0.532886 0.269209,0.62964 0.243851,0.09466 0.518075,-0.02839 0.613952,-0.273756 l 7.623081,-19.221642 c 0.143354,-0.343702 -0.124331,-0.663161 -0.429962,-0.670704 z"
         style="opacity:0.2"
         id="path2" /><path
         d="m 32.005486,30.000016 a 0.47606443,0.48064327 0 0 0 -0.445493,0.301155 L 22.038108,54.33093 a 0.47606443,0.48064327 0 0 0 0.736029,0.563198 L 41.814034,40.475881 a 0.47606443,0.48064327 0 0 0 0.185949,-0.38524 v -9.611514 a 0.47606443,0.48064327 0 0 0 -0.474548,-0.479108 z m 0.176259,1.333682 8.619283,8.702184 -17.236629,13.055232 z"
         style="opacity:0.2"
         id="path3" /><path
         d="m 42.530282,10.000134 c -0.101875,-0.00252 -0.20952,0.03032 -0.306006,0.107549 L 23.185947,24.524892 c -0.118276,0.09178 -0.1871,0.23461 -0.185932,0.385214 v 9.610819 c 9.93e-4,0.263931 0.213094,0.478019 0.474506,0.479075 h 6.064225 c 0.261429,-10e-4 0.473486,-0.215133 0.474508,-0.479075 -9.93e-4,-0.263943 -0.213083,-0.478045 -0.474508,-0.479074 h -5.074542 l 16.40434,-20.703838 -6.414542,16.198583 c -0.09994,0.248851 0.02111,0.532886 0.269209,0.62964 0.243851,0.09466 0.518075,-0.02839 0.613952,-0.273756 l 7.623081,-19.221642 c 0.143354,-0.343702 -0.124331,-0.663161 -0.429962,-0.670704 z"
         style="fill:#788bff"
         id="path4" /><path
         d="m 42.492188,10 c -0.09017,0.0057 -0.183153,0.03985 -0.267579,0.107422 L 23.185547,24.525391 C 23.067271,24.617171 22.998832,24.759552 23,24.910156 v 0.992188 c 0.0011,-0.147819 0.06925,-0.286707 0.185547,-0.376953 L 42.224609,11.107422 C 42.321095,11.030193 42.429375,10.9975 42.53125,11 c 0.09544,0.0024 0.186995,0.03542 0.263672,0.08984 l 0.166016,-0.419922 C 43.104292,10.32622 42.836881,10.007543 42.53125,10 42.51852,9.999685 42.50507,9.9991924 42.49219,10 Z m -1.623047,4.337891 -0.791016,1 -5.625,14.199218 c -0.08501,0.211673 -0.009,0.448544 0.167969,0.574219 4.35e-4,3.09e-4 0.0015,-3.08e-4 0.002,0 z M 25.257812,34.041016 24.498047,35 h 5.041015 c 0.261429,-10e-4 0.473588,-0.214574 0.47461,-0.478516 -9.93e-4,-0.263943 -0.213184,-0.479439 -0.47461,-0.480468 z"
         style="opacity:0.2;fill:#ffffff"
         id="path5" /><path
         d="m 32.005486,29.000016 a 0.47606443,0.48064327 0 0 0 -0.445493,0.301155 L 22.038108,53.33093 a 0.47606443,0.48064327 0 0 0 0.736029,0.563198 L 41.814034,39.475881 a 0.47606443,0.48064327 0 0 0 0.185949,-0.38524 v -9.611514 a 0.47606443,0.48064327 0 0 0 -0.474548,-0.479108 z m 0.176259,1.333682 8.619283,8.702184 -17.236629,13.055232 z"
         style="fill:#f9b208"
         id="path6" /><path
         d="m 32.005859,29 a 0.47606443,0.48064327 0 0 0 -0.445312,0.300781 l -9.521485,24.029297 a 0.47606443,0.48064327 0 0 0 0.164063,0.583984 L 31.560547,30.300781 A 0.47606443,0.48064327 0 0 1 32.005859,30 h 9.519532 A 0.47606443,0.48064327 0 0 1 42,30.478516 v -1 A 0.47606443,0.48064327 0 0 0 41.525391,29 Z m 8.228516,10.462891 -16.103516,12.201171 -0.566406,1.427735 17.236328,-13.056641 z"
         style="opacity:0.2;fill:#ffffff"
         id="path8" /></g></g></svg>
